<mxfile host="app.diagrams.net" agent="Mozilla/5.0 (Windows NT 10.0; Win64; x64) AppleWebKit/537.36 (KHTML, like Gecko) Chrome/133.0.0.0 Safari/537.36" version="26.1.0">
  <diagram name="Página-1" id="j-LXRXBN6gkOoeGYmMlP">
    <mxGraphModel dx="1434" dy="780" grid="1" gridSize="10" guides="1" tooltips="1" connect="1" arrows="1" fold="1" page="1" pageScale="1" pageWidth="827" pageHeight="1169" math="0" shadow="0">
      <root>
        <mxCell id="0" />
        <mxCell id="1" parent="0" />
        <mxCell id="Li_qgIiwiCM6dAC_Hu1F-1" value="&lt;h1 style=&quot;margin-top: 0px;&quot;&gt;CREATE TABLE cliente (&lt;/h1&gt;&lt;h1 style=&quot;margin-top: 0px;&quot;&gt;&amp;nbsp; &amp;nbsp; id_cliente INT PRIMARY KEY,&lt;/h1&gt;&lt;h1 style=&quot;margin-top: 0px;&quot;&gt;&amp;nbsp; &amp;nbsp; nome VARCHAR(100),&lt;/h1&gt;&lt;h1 style=&quot;margin-top: 0px;&quot;&gt;&amp;nbsp; &amp;nbsp; idade DATE&lt;/h1&gt;&lt;h1 style=&quot;margin-top: 0px;&quot;&gt;);&lt;/h1&gt;&lt;h1 style=&quot;margin-top: 0px;&quot;&gt;&lt;br&gt;&lt;/h1&gt;&lt;h1 style=&quot;margin-top: 0px;&quot;&gt;CREATE TABLE endereco (&lt;/h1&gt;&lt;h1 style=&quot;margin-top: 0px;&quot;&gt;&amp;nbsp; &amp;nbsp; id_endereco INT PRIMARY KEY,&lt;/h1&gt;&lt;h1 style=&quot;margin-top: 0px;&quot;&gt;&amp;nbsp; &amp;nbsp; cep VARCHAR(10),&lt;/h1&gt;&lt;div&gt;&lt;h1 style=&quot;margin-top: 0px;&quot;&gt;&amp;nbsp; &amp;nbsp; logradouro VARCHAR(200),&lt;/h1&gt;&lt;/div&gt;&lt;h1 style=&quot;margin-top: 0px;&quot;&gt;&amp;nbsp; &amp;nbsp; fk_id_cliente INT,&lt;/h1&gt;&lt;h1 style=&quot;margin-top: 0px;&quot;&gt;&amp;nbsp; &amp;nbsp; FOREIGN KEY (fk_id_clinete) REFERENCES cliente(id_cliente)&lt;/h1&gt;&lt;h1 style=&quot;margin-top: 0px;&quot;&gt;);&lt;/h1&gt;" style="text;html=1;whiteSpace=wrap;overflow=hidden;rounded=0;" vertex="1" parent="1">
          <mxGeometry x="29" y="150" width="770" height="1030" as="geometry" />
        </mxCell>
        <mxCell id="Li_qgIiwiCM6dAC_Hu1F-2" value="&lt;font style=&quot;font-size: 40px;&quot;&gt;Modelo Físico&lt;/font&gt;" style="text;html=1;align=center;verticalAlign=middle;whiteSpace=wrap;rounded=0;" vertex="1" parent="1">
          <mxGeometry x="10" y="20" width="320" height="60" as="geometry" />
        </mxCell>
      </root>
    </mxGraphModel>
  </diagram>
</mxfile>
